{"title":"Welcome 2009 DVD9rip French Klam","uid":6014501,"size":1683251620,"categoryP":"video","categoryS":"movies","magnet":"?xt=urn:btih:6999ab1195cfb7e051d1438fa8e1384b738e59a0&amp;dn=Welcome+2009+DVD9rip+French+Klam&amp;tr=udp%3A%2F%2Ftracker.openbittorrent.com%3A80&amp;tr=udp%3A%2F%2Fopen.demonii.com%3A1337&amp;tr=udp%3A%2F%2Ftracker.coppersurfer.tk%3A6969&amp;tr=udp%3A%2F%2Fexodus.desync.com%3A6969","seeders":3,"leechers":1,"uploader":"Klambake","files":-1,"time":1291581230,"description":"With: Vincent Lindon, Firat Ayverdi and Audrey Dana\n\nBilal is 17 years old, a Kurdish boy from Iraq. He sets off on an adventure-filled journey across Europe. He wants to get to England to see his love who lives there. Bilal finally reaches Calais, but how do you cover 32 kilometers of the English Channel when you can't swim? The boy soon discovers that his trip won't be as easy as he imagined... The community of struggling illegal aliens in Calais is captured with authenticity, from the point of view of people who arrived there knowing nothing about France. This immigrant drama, with wonderful performances by the actors, is a strong story which uses documentary austerity and minimalist style to create a great emotional impact.\n\nGeneral:\n\nComplete name                    : Welcome\\Movie.avi\nFormat                           : AVI\nFormat/Info                      : Audio Video Interleave\nFile size                        : 1.57 GiB\nDuration                         : 1h 44mn\nOverall bit rate                 : 2 142 Kbps\n\nVideo:\n\nFormat                           : MPEG-4 Visual\nFormat profile                   : Simple@L3\nFormat settings, BVOP            : No\nFormat settings, QPel            : No\nFormat settings, GMC             : No warppoints\nFormat settings, Matrix          : Default (H.263)\nCodec ID                         : XVID\nCodec ID/Hint                    : XviD\nDuration                         : 1h 44mn\nBit rate                         : 1 683 Kbps\nWidth                            : 720 pixels\nHeight                           : 576 pixels\nDisplay aspect ratio             : 5:4\nFrame rate                       : 25.000 fps\nStandard                         : PAL\nColor space                      : YUV\nChroma subsampling               : 4:2:0\nBit depth                        : 8 bits\nScan type                        : Progressive\nBits/(Pixel*Frame)               : 0.162\nStream size                      : 1.23 GiB (79%)\nWriting library                  : XviD 1.1.2 (UTC 2006-11-01)\n\nAudio:\n\nFormat                           : AC-3\nFormat/Info                      : Audio Coding 3\nMode extension                   : CM (complete main)\nCodec ID                         : 2000\nDuration                         : 1h 44mn\nBit rate mode                    : Constant\nBit rate                         : 448 Kbps\nChannel(s)                       : 6 channels\nChannel positions                : Front: L C R, Side: L R, LFE\nSampling rate                    : 48.0 KHz\nBit depth                        : 16 bits\nStream size                      : 335 MiB (21%)\nAlignment                        : Aligned on interleaves\nInterleave, duration             : 32 ms (0.80 video frame)\n","torrent":{"xt":"urn:btih:6999ab1195cfb7e051d1438fa8e1384b738e59a0","amp;dn":"Welcome+2009+DVD9rip+French+Klam","amp;tr":["udp%3A%2F%2Ftracker.openbittorrent.com%3A80","udp%3A%2F%2Fopen.demonii.com%3A1337","udp%3A%2F%2Ftracker.coppersurfer.tk%3A6969","udp%3A%2F%2Fexodus.desync.com%3A6969"],"infoHash":"6999ab1195cfb7e051d1438fa8e1384b738e59a0","infoHashBuffer":{"type":"Buffer","data":[105,153,171,17,149,207,183,224,81,209,67,143,168,225,56,75,115,142,89,160]},"announce":[],"urlList":[]}}